<?xml version="1.0" standalone="no"?><!DOCTYPE svg PUBLIC "-//W3C//DTD SVG 1.1//EN" "http://www.w3.org/Graphics/SVG/1.1/DTD/svg11.dtd"><svg t="1608276818791" class="icon" viewBox="0 0 1024 1024" version="1.1" xmlns="http://www.w3.org/2000/svg" p-id="1955" xmlns:xlink="http://www.w3.org/1999/xlink" width="200" height="200"><defs><style type="text/css"></style></defs><path d="M243.2 917.333h541.867V614.4c0-17.067 17.066-34.133 34.133-34.133s34.133 17.066 34.133 34.133v337.067c0 17.066-17.066 34.133-34.133 34.133H209.067c-17.067 0-34.134-17.067-34.134-34.133V614.4c0-17.067 17.067-34.133 34.134-34.133S243.2 597.333 243.2 614.4v302.933zM512 128L106.667 533.333c-12.8 12.8-34.134 12.8-46.934 0-12.8-12.8-12.8-34.133 0-46.933L486.4 55.467c12.8-12.8 34.133-12.8 46.933 0L964.267 486.4c12.8 12.8 12.8 34.133 0 46.933-12.8 12.8-34.134 12.8-46.934 0L512 128z" p-id="1956" fill="#d81e06"></path></svg>