<?xml version="1.0" standalone="no"?><!DOCTYPE svg PUBLIC "-//W3C//DTD SVG 1.1//EN" "http://www.w3.org/Graphics/SVG/1.1/DTD/svg11.dtd"><svg t="1608276902826" class="icon" viewBox="0 0 1183 1024" version="1.1" xmlns="http://www.w3.org/2000/svg" p-id="4029" xmlns:xlink="http://www.w3.org/1999/xlink" width="231.0546875" height="200"><defs><style type="text/css"></style></defs><path d="M904.474267 787.331914H115.240473a37.805663 37.805663 0 0 1-35.25436-35.115198S25.805728 451.07026 1.127676 243.718958c-7.097259-57.427497 19.992933-85.491823 72.92086-85.491823h862.154655l14.194519-123.065549A36.692367 36.692367 0 0 1 983.286317 0h158.783782a39.846704 39.846704 0 1 1 0 79.693409h-123.529422l-79.971733 672.616081a35.903783 35.903783 0 0 1-34.094677 34.976037zM77.759522 236.575311c21.291778 166.391302 56.453364 389.004032 70.555107 471.99094h722.018573L926.647404 236.575311z m787.888561 630.450012a78.487339 78.487339 0 1 1-78.858437 78.487338 78.487339 78.487339 0 0 1 78.858437-78.487338z m-711.581427 0a78.487339 78.487339 0 1 1-78.858437 78.487338 78.487339 78.487339 0 0 1 78.858437-78.487338z" p-id="4030" fill="#707070"></path></svg>