<?xml version="1.0" standalone="no"?><!DOCTYPE svg PUBLIC "-//W3C//DTD SVG 1.1//EN" "http://www.w3.org/Graphics/SVG/1.1/DTD/svg11.dtd"><svg t="1608276942039" class="icon" viewBox="0 0 1024 1024" version="1.1" xmlns="http://www.w3.org/2000/svg" p-id="4899" xmlns:xlink="http://www.w3.org/1999/xlink" width="200" height="200"><defs><style type="text/css"></style></defs><path d="M883.25 830.9375c-21.9375-113.0625-89.4375-209.25-187.3125-264.9375-10.125-5.0625-16.03125-9.703125-33.75-16.875-31.21875-12.65625-62.4375-20.671875-92.8125-25.734375 78.890625-24.890625 136.6875-98.71875 136.6875-185.203125 0-106.3125-87.75-194.0625-194.0625-194.0625s-194.0625 87.75-194.0625 194.0625c0 84.375 55.265625 156.9375 130.78125 183.515625-153.140625 27-276.75 149.34375-307.96875 309.234375-3.375 13.5 0 27 8.4375 38.8125 8.4375 10.125 21.9375 16.875 35.4375 16.875h653.0625c13.5 0 27-6.75 35.4375-16.875 10.125-11.8125 13.5-25.3125 10.125-38.8125z" fill="#707070" p-id="4900"></path></svg>